<?xml version="1.0" encoding="UTF-8" standalone="no"?>
<svg
   xmlns:dc="http://purl.org/dc/elements/1.1/"
   xmlns:cc="http://creativecommons.org/ns#"
   xmlns:rdf="http://www.w3.org/1999/02/22-rdf-syntax-ns#"
   xmlns:svg="http://www.w3.org/2000/svg"
   xmlns="http://www.w3.org/2000/svg"
   id="svg8"
   version="1.1"
   viewBox="0 0 1000 1000"
   height="1000"
   width="1000">
  <defs
     id="defs2" />
  <metadata
     id="metadata5">
    <rdf:RDF>
      <cc:Work
         rdf:about="">
        <dc:format>image/svg+xml</dc:format>
        <dc:type
           rdf:resource="http://purl.org/dc/dcmitype/StillImage" />
        <dc:title></dc:title>
      </cc:Work>
    </rdf:RDF>
  </metadata>
  <g
     transform="translate(0,-122.51965)"
     id="layer1">
    <path
       id="path36"
       d="m 843.22797,204.69134 c -5.98348,-7e-5 -10.58756,1.289 -17.30859,1.93359 -6.72103,0.64459 -15.5605,0.64457 -28.81836,3.31445 -13.25786,2.66989 -30.9365,8.00948 -46.58789,15.4668 -15.65139,7.45732 -29.27973,17.03536 -41.15625,26.33398 -11.87652,9.29863 -22.00561,18.32113 -30.75195,28.08008 -8.74635,9.75896 -16.11338,20.25716 -24.12305,29.83203 -8.00967,9.57487 -16.66442,18.23011 -25.13477,29.64649 -8.47034,11.41638 -16.75912,25.59904 -23.29492,34.16015 -6.5358,8.56112 -11.3251,11.50828 -15.65234,16.75586 -4.32725,5.24759 -8.19616,12.80047 -10.12891,17.49414 -1.93275,4.69368 -1.93127,6.53492 -6.16601,11.23047 -4.23475,4.69555 -12.70665,12.24677 -22.18946,19.33594 -9.48281,7.08917 -19.97955,13.71842 -30.93554,17.76953 -10.956,4.05111 -22.37427,5.52467 -39.6836,4.41992 -17.30932,-1.10474 -40.51235,-4.788 -63.99023,-9.75976 -23.47789,-4.97177 -47.23221,-11.23194 -66.56641,-15.375 -19.33419,-4.14306 -34.25117,-6.16953 -51.09961,-5.61719 -16.84843,0.55234 -35.63446,3.68354 -49.9043,7.08984 -14.26981,3.40631 -24.02845,7.08839 -31.40429,9.6543 -7.37584,2.56592 -12.36968,4.01651 -17.4043,5.06641 -5.03462,1.0499 -10.11237,1.70069 -17.07812,3.52344 -6.96576,1.82273 -15.82081,4.81735 -25.78121,9.43945 -9.9605,4.6221 -21.0316,10.8746 -28.3223,16.86328 -7.2908,5.98868 -10.8063,11.71712 -16.1445,18.55273 -5.3382,6.83562 -12.5013,14.77972 -16.863296,24.34961 -4.3621,9.5699 -5.924,20.76803 -8.2676,33.85352 -2.3436,13.08548 -5.4687,28.06149 -7.8125,46.94141 -2.3438,18.8799 -3.9065,41.66845 -6.8359,59.50585 -2.9295,17.83741 -7.2275,30.72784 -11.6543,43.35743 -4.4269,12.62958 -8.9845,25.00198 -13.1504,33.72461 -4.166,8.72262 -7.9423,13.80132 -7.8125,17.77343 0.1298,3.97211 4.1678,6.83645 6.9668,10.15625 2.799,3.3198 4.3624,7.0975 4.2324,10.35157 -0.1301,3.25406 -1.9529,5.98793 -1.3672,7.68164 0.5857,1.6937 3.5815,2.34556 5.4688,4.36328 1.8872,2.01771 2.6672,5.40212 5.6015,8.88476 2.9344,3.48265 8.023,7.06394 10.1055,10.92383 2.0825,3.85989 1.162,8.00285 -0.6563,14.67774 -1.8183,6.67488 -4.5346,15.88228 -8.0332,26.53906 -3.4985,10.65677 -7.7797,22.76778 -10.6797,31.92773 -2.8999,9.15996 -4.4201,15.37553 -4.6503,20.85352 -0.2303,5.47798 0.8275,10.21958 2.623,13.92578 1.7955,3.7062 4.3285,6.37527 7.0215,9.59766 2.693,3.22238 5.547,6.99849 7.5723,10.63476 2.0252,3.63627 3.2232,7.13601 3.6835,10.58789 0.4604,3.45188 0.1831,6.86049 -0.6914,10.3125 -0.8744,3.45201 -2.3477,6.95215 -3.3144,10.4043 -0.9667,3.45214 -1.4256,6.8577 0.1855,12.24414 1.6111,5.38644 5.2917,12.75101 9.1133,17.03316 3.8217,4.2822 7.7811,5.4792 15.2852,6.2618 7.5041,0.7826 18.550796,1.1512 27.390596,0.875 8.8398,-0.2763 15.4648,-1.1967 19.2422,-2.3946 3.7773,-1.1978 4.6974,-2.6714 4.4668,-5.2031 -0.2306,-2.53174 -1.6117,-6.12129 -3.4531,-9.66601 -1.8415,-3.54472 -4.1439,-7.04188 -5.6172,-9.25195 -1.4734,-2.21008 -2.1169,-3.13031 -1.9785,-3.54493 0.1383,-0.41461 1.059,-0.32253 4.5117,0.0918 3.4527,0.41433 9.4371,1.15071 16.2968,1.38086 6.8598,0.23015 14.592,-0.0456 20.3477,-0.73633 5.75576,-0.69073 9.52688,-1.79487 11.46094,-3.22265 1.93406,-1.42779 2.02604,-3.1771 1.51953,-5.70899 -0.50651,-2.53189 -1.61019,-5.8474 -2.62305,-8.19531 -1.01283,-2.34791 -1.93292,-3.72824 -2.43945,-5.57031 -0.50652,-1.84208 -0.59876,-4.14355 -1.51953,-6.53711 -0.92077,-2.39356 -2.66999,-4.87837 -6.53714,-9.34375 -3.8669,-4.46539 -9.85,-10.90963 -13.4414,-15.42188 -3.5913,-4.51224 -4.7891,-7.09003 -5.7558,-12.47656 -0.9668,-5.38653 -1.7021,-13.57997 -1.7481,-22.28125 -0.046,-8.70128 0.5973,-17.90701 1.9785,-27.62109 1.3812,-9.71408 3.4988,-19.93313 6.7676,-29.69336 3.2688,-9.76023 7.6873,-19.05698 12.5215,-27.57422 4.83416,-8.51725 10.08149,-16.25039 14.36328,-23.06445 4.28179,-6.81408 7.59635,-12.70531 12.47656,-18.73633 4.88021,-6.03103 11.32322,-12.2007 19.42578,-20.44141 8.10257,-8.24071 17.86154,-18.55053 25.64258,-25.87109 7.78104,-7.32057 13.58084,-11.64593 23.69922,-18.4375 10.11837,-6.79157 24.55094,-16.04631 34.24414,-23.18164 9.6932,-7.13534 14.63929,-12.14677 19.68555,-15.89063 5.04625,-3.74386 10.18855,-6.21655 14.29101,-7.68164 4.10247,-1.46509 7.16207,-1.92136 9.79883,-1.69336 2.63676,0.228 4.84894,1.13931 13.50781,4.98047 8.65887,3.84116 23.76407,10.61125 43.71875,18.13086 19.95468,7.51961 44.75765,15.78865 68.11133,22.14648 23.35368,6.35784 45.25262,10.80405 61.52148,13.69532 16.26888,2.89126 26.90286,4.22618 38.72266,5.16015 11.8198,0.93397 24.8177,1.46776 32.18555,1.88086 7.36784,0.4131 9.09296,0.70436 11.0625,1.20899 1.96954,0.50463 4.1829,1.2213 5.81055,1.9375 1.62761,0.71619 2.66948,1.43316 5.07812,4.76953 2.40864,3.33636 6.19075,9.30118 8.12891,12.52929 1.93816,3.22811 2.04289,3.73727 0.30078,8.22657 -1.74211,4.4893 -5.33322,12.96025 -11.55469,27.82617 -6.22147,14.86591 -15.07366,36.13064 -22.29883,52.55469 -7.22516,16.42404 -12.82482,28.0141 -17.56055,36.86718 -4.73571,8.85309 -8.61152,14.97462 -11.24804,20.80078 -2.63653,5.82617 -4.03506,11.3597 -4.37696,16.38868 -0.34188,5.02897 0.37436,9.55508 2.19727,13.68945 1.82292,4.13437 4.75215,7.87806 7.14453,12.93945 2.39239,5.0614 4.24877,11.44341 5.25781,17.51368 1.00904,6.07024 1.17099,11.83306 0.45508,16.61718 -0.7159,4.78413 -2.31111,8.59412 -2.83203,11.57227 -0.52092,2.97815 0.0325,5.12673 1.41602,7.66601 1.38348,2.53928 3.59726,5.46861 5.02539,8.33399 1.42813,2.86538 2.07223,5.66693 3.45312,7.52929 1.3809,1.86237 3.49686,2.78441 9.02149,3.38282 5.52463,0.59841 14.45585,0.87392 23.84765,0.59765 9.39181,-0.27626 19.23572,-1.10334 24.76367,-2.20898 5.52799,-1.10564 6.7248,-2.48666 6.49415,-5.06445 -0.23066,-2.5778 -1.88896,-6.35242 -3.73047,-10.58789 -1.84151,-4.23548 -3.8666,-8.93182 -7.04297,-13.53516 -3.17637,-4.60334 -7.50403,-9.11509 -11.3711,-13.39649 -3.86707,-4.28138 -7.27301,-8.33044 -9.62109,-11.36914 -2.34808,-3.03869 -3.63677,-5.06552 -3.95898,-9.76171 -0.32222,-4.6962 0.3225,-12.06009 1.19726,-19.56446 0.87476,-7.50436 1.97951,-15.14416 3.54492,-22.23437 1.56542,-7.09022 3.59009,-13.62748 6.39844,-21.5 2.80835,-7.87252 6.39944,-17.07659 9.80664,-24.1211 3.40721,-7.04451 6.62418,-11.91889 8.51367,-14.82226 1.88949,-2.90337 2.44193,-3.82362 3.08594,-2.48828 0.64401,1.33533 1.38068,4.9254 2.76172,11.32422 1.38104,6.39881 3.40808,15.60779 5.11133,24.81445 1.70324,9.20665 3.0838,18.41415 4.46484,30.29101 1.38105,11.87687 2.76186,26.42537 4.05078,38.25586 1.28892,11.8305 2.48592,20.94652 3.95899,26.79297 1.47307,5.84646 3.22286,8.424 6.35351,11.23242 3.13066,2.80843 7.64148,5.84677 11.32422,8.79297 3.68274,2.94621 6.53784,5.79995 8.37891,9.25196 1.84107,3.452 2.67017,7.50583 2.90039,12.29301 0.23021,4.7872 -0.1375,10.3133 -0.1836,14.2715 -0.0461,3.9581 0.23024,6.3508 1.19727,7.9629 0.96703,1.6121 2.62498,2.4408 3.54492,3.5449 0.91994,1.1041 1.10437,2.4849 2.43946,4.4648 1.33508,1.98 3.81941,4.5582 8.83789,6.2617 5.01847,1.7036 12.56787,2.5316 22.09765,2.7618 9.52978,0.2301 21.03375,-0.1385 27.75781,-1.336 6.72407,-1.1975 8.65743,-3.2218 9.34766,-5.7539 0.69023,-2.5321 0.13748,-5.5699 -1.42773,-8.7461 -1.56522,-3.1762 -4.14303,-6.4911 -6.21485,-9.9902 -2.07181,-3.4991 -3.63749,-7.1824 -5.70898,-10.3125 -2.07149,-3.1302 -4.65034,-5.70672 -7.96484,-8.79105 -3.31451,-3.08434 -7.36374,-6.67541 -12.42774,-12.01563 -5.064,-5.34022 -11.14063,-12.42993 -15.97461,-20.07227 -4.83398,-7.64231 -8.42586,-15.83666 -11.9707,-24.67578 -3.54485,-8.83911 -7.04327,-18.32161 -9.20703,-28.17382 -2.16377,-9.85222 -2.99168,-20.06925 -2.85352,-28.63282 0.13817,-8.56357 1.24357,-15.46822 2.07227,-22.00586 0.82869,-6.53763 1.38035,-12.70631 0.91992,-22.41992 -0.46044,-9.71361 -1.93249,-22.96917 -2.30078,-32.91406 -0.3683,-9.9449 0.36745,-16.57395 1.56445,-24.72266 1.19701,-8.14871 2.85434,-17.81272 4.10938,-24.91406 1.25503,-7.10133 2.10736,-11.63354 4.22656,-16.83008 2.1192,-5.19653 5.50309,-11.05415 8.23828,-15.28711 2.73518,-4.23296 4.81675,-6.83598 10.02539,-10.35156 5.20864,-3.51558 13.54136,-7.94163 21.67969,-15.10351 8.13832,-7.16194 16.07989,-17.05806 22.52539,-28.19141 6.4455,-11.13335 11.39441,-23.50205 15.30078,-35.9375 3.90637,-12.43546 6.77029,-24.93462 7.0957,-34.96094 0.32542,-10.02632 -1.88728,-17.57732 -4.16601,-23.50195 -2.27874,-5.92464 -4.6238,-10.22153 -6.31641,-12.89063 -1.69261,-2.66909 -2.73401,-3.70951 -3.32031,-4.94726 -0.58631,-1.23776 -0.71563,-2.66907 0.13086,-8.39844 0.84649,-5.72937 2.66974,-15.75481 6.57617,-29.10156 3.90643,-13.34675 9.89587,-30.0129 15.05859,-46.18164 5.16272,-16.16875 9.49698,-31.8362 12.35547,-44.06836 2.85849,-12.23216 4.23894,-21.02296 5.13672,-28.11328 0.89778,-7.09033 1.31173,-12.46915 1.49609,-15.48829 0.18437,-3.01911 0.13895,-3.66274 1.03711,-3.89257 0.89817,-0.22983 2.73909,-0.046 4.25782,0.64453 1.51873,0.69049 2.71568,1.88797 5.33984,3.89062 2.62416,2.00266 6.67604,4.81075 11.1875,8.35547 4.51146,3.54473 9.4822,7.82472 13.0957,11.69141 3.6135,3.86668 5.87073,7.31966 7.81641,10.30664 1.94567,2.98698 3.58082,5.5108 4.54492,7.86133 0.9641,2.35052 1.25718,4.53081 1.66406,8.01367 0.40689,3.48285 0.92901,8.26784 3.19141,12.8418 2.2624,4.57395 6.2652,8.93608 9.61914,11.29687 3.35394,2.36079 6.05483,2.71741 8.00781,3.33594 1.95299,0.61852 3.15601,1.49793 5.20703,2.57226 2.05103,1.07433 4.94741,2.34342 7.11329,3.02735 2.16587,0.68393 3.5953,0.78106 4.49218,0.60156 0.89689,-0.1795 1.25397,-0.63463 1.83985,-0.69922 0.58587,-0.0646 1.39932,0.25978 2.83203,0.45508 1.43271,0.1953 3.48257,0.26062 6.10351,-0.24414 2.62095,-0.50476 5.8084,-1.57719 7.73047,-2.65234 1.92208,-1.0752 2.5711,-2.14833 3.61328,-2.97852 1.04219,-0.83019 2.47525,-1.41545 4.41993,-2.68945 1.94467,-1.274 4.39913,-3.23506 6.08789,-5.68946 1.68875,-2.45439 2.60958,-5.40006 4.45117,-10.0039 1.84159,-4.60385 4.60256,-10.86351 6.7207,-15.65235 2.11814,-4.78884 3.59091,-8.10229 1.38086,-16.48047 -2.21005,-8.37817 -8.10153,-21.8196 -11.96875,-32.96093 -3.86722,-11.14134 -5.70868,-19.98 -7.08984,-27.80664 -1.38116,-7.82665 -2.3002,-14.63497 -2.48438,-19.14844 -0.18418,-4.51347 0.3671,-6.72313 1.65625,-10.40625 1.28915,-3.68312 3.31442,-8.83924 2.76172,-15.00781 -0.5527,-6.16858 -3.68226,-13.35003 -6.7207,-19.70313 -3.03845,-6.35309 -5.98472,-11.87609 -8.5625,-15.55859 -2.57778,-3.6825 -4.78708,-5.52277 -5.89258,-7.36524 -1.1055,-1.84246 -1.10547,-3.68323 -1.10547,-5.61718 0,-1.93395 9.3e-4,-3.96053 2.76367,-6.07813 2.76274,-2.1176 8.28402,-4.32518 12.98047,-5.89062 4.69645,-1.56545 8.56224,-2.4871 12.42969,-4.69727 3.86745,-2.21017 7.73356,-5.70692 11.14062,-9.48242 3.40706,-3.7755 6.35426,-7.82776 4.88086,-10.86524 -1.4734,-3.03748 -7.36677,-5.06302 -15.56054,-5.52343 -8.19378,-0.46044 -18.69217,0.64499 -26.70118,2.57812 -8.009,1.93313 -13.53986,4.69749 -16.85156,6.44531 -3.3117,1.74783 -4.4168,2.48569 -5.33789,2.57813 -0.92108,0.0924 -1.65569,-0.46042 -0.64258,-1.75 1.01312,-1.28958 3.77436,-3.31381 5.43164,-5.98438 1.65729,-2.67056 2.20904,-5.98528 -1.19726,-7.91796 -3.40631,-1.93269 -10.7732,-2.48604 -17.0332,-2.57813 -6.26001,-0.0921 -11.41704,0.27667 -17.67774,-0.18359 -6.2607,-0.46027 -13.62784,-1.74993 -19.61133,-1.75 z m 5.9668,9.69531 c 0.57178,-0.0571 0.87173,3.3e-4 0.81836,0.18945 -0.2135,0.75651 -6.07241,3.62089 -11.08594,6.94141 -5.01353,3.32052 -9.17913,7.09511 -11.91406,11.7832 -2.73493,4.6881 -4.03701,10.28721 -6.9668,15.30078 -2.92979,5.01358 -7.48577,9.43885 -11.19726,14.90821 -3.7115,5.46936 -6.5767,11.97934 -10.02735,17.12304 -3.45064,5.1437 -7.48542,8.91916 -10.61133,7.87696 -3.1259,-1.04221 -5.33872,-6.90191 -6.64062,-8.07422 -1.3019,-1.17231 -1.6939,2.34374 -2.99609,6.38086 -1.3022,4.03711 -3.51367,8.59429 -5.79297,9.31054 -2.27931,0.71626 -4.62239,-2.40868 -6.25,-5.66406 -1.62762,-3.25538 -2.53977,-6.64027 -2.86524,-4.03711 -0.32547,2.60316 -0.0661,11.1983 -2.27929,17.12305 -2.21322,5.92474 -6.89877,9.18048 -10.67579,8.91992 -3.77701,-0.26056 -6.64196,-4.03651 -8.66015,-6.64063 -2.01819,-2.60411 -3.19035,-4.03592 -4.96875,-0.15039 -1.7784,3.88554 -4.16245,13.09079 -7.38086,21.46875 -3.21841,8.37797 -7.26957,15.92677 -11.45899,19.65625 -4.18941,3.72949 -8.51694,3.63808 -11.27929,3.5 -2.76235,-0.13807 -3.95819,-0.32213 -3.12891,0.69141 0.82928,1.01354 3.68213,3.22108 3.72852,6.62695 0.0464,3.40588 -2.71753,8.00932 -5.98633,10.58789 -3.2688,2.57857 -7.04167,3.13179 -8.92969,4.78907 -1.88802,1.65727 -1.88895,4.41754 -3.08594,7.64062 -1.19698,3.22308 -3.58942,6.90552 -6.49023,8.28711 -2.90082,1.38159 -6.30612,0.46129 -7.36523,1.33594 -1.05915,0.87464 0.22873,3.54299 0.0449,6.21289 -0.18381,2.6699 -1.84,5.34075 -4.78711,6.49219 -2.94712,1.15143 -7.18074,0.7833 -8.35157,1.56054 -1.17082,0.77725 0.72384,2.69821 0.17383,6.52344 -0.55001,3.82523 -3.54594,9.55414 -6.54101,15.02344 -2.99508,5.4693 -5.98796,10.67712 -8.82032,13.02148 -2.83229,2.34436 -5.50102,1.82446 -7.8125,2.9961 -2.31146,1.17164 -4.26429,4.035 -7.35742,7.0957 -3.09313,3.0607 -7.32311,6.31386 -9.24414,5.66211 -1.92103,-0.65175 -1.53186,-5.20665 -2.41015,-5.98828 -0.8783,-0.78164 -3.02719,2.2127 -6.67383,5.46875 -3.64664,3.25605 -8.78792,6.77015 -11.19727,6.3789 -2.40935,-0.39124 -2.08392,-4.68709 -2.92969,-5.37109 -0.84575,-0.684 -2.86306,2.2464 -6.4121,6.02344 -3.54905,3.77704 -8.62635,8.39736 -12.43555,10.02539 -3.8092,1.62803 -6.34669,0.26238 -7.97461,-1.88672 -1.62792,-2.1491 -2.34451,-5.0793 -4.00391,-6.86914 -1.6594,-1.78984 -4.26471,-2.44035 -4.39453,-4.29688 -0.12982,-1.85652 5.03951,-2.07519 5.69094,-0.9026 0.65143,1.1726 2.36892,2.22535 3.3437,3.51593 1.26641,1.67669 1.83728,4.71142 3.2056,5.42769 1.36831,0.71627 3.77517,0.0649 6.83398,-2.79883 3.05881,-2.86374 6.77324,-7.94463 10.54883,-13.34765 3.77559,-5.40303 7.61748,-11.1326 10.9375,-16.17774 3.32002,-5.04514 6.11969,-9.40836 6.73828,-9.83203 0.61859,-0.42367 -0.94436,3.09241 -2.57227,6.86914 -1.62791,3.77673 -3.3207,7.812 -4.13476,11.13281 -0.81406,3.32082 -0.74854,5.92405 0.75,6.31446 1.49854,0.3904 4.42727,-1.43171 7.58398,-4.6211 3.15671,-3.18939 6.5431,-7.7479 11.19727,-14.81054 4.65416,-7.06265 10.58041,-16.63604 13.50976,-20.60743 2.92935,-3.97139 2.86404,-2.34312 1.20313,1.69532 -1.66091,4.03843 -4.9138,10.47933 -7.45313,16.30664 -2.53932,5.8273 -4.36216,11.03373 -4.58984,13.93164 -0.22768,2.89791 1.13906,3.48487 3.18945,1.36914 2.0504,-2.11573 4.78605,-6.93597 7.16211,-11.03711 2.37607,-4.10114 4.39389,-7.48686 4.84961,-6.9668 0.45572,0.52007 -0.65109,4.94967 -0.25976,6.74024 0.39133,1.79057 2.2791,0.94398 4.45898,-2.08204 2.17989,-3.026 4.6552,-8.2374 6.25,-12.5664 1.5948,-4.329 2.31123,-7.78091 2.14844,-11.71875 -0.16279,-3.93784 -1.20371,-8.36741 -0.74805,-9.63672 0.45567,-1.26931 2.40844,0.6204 5.07813,1.75977 2.66968,1.13936 6.05563,1.52901 8.23632,0.61718 2.18071,-0.91182 3.15771,-3.12505 3.32032,-6.3789 0.16261,-3.25385 -0.48954,-7.55371 -0.0664,-9.05078 0.42313,-1.49708 1.92074,-0.19517 3.8418,0.19531 1.92106,0.39048 4.26428,-0.12907 6.31445,-1.59375 2.05018,-1.46468 3.80953,-3.8748 4.33008,-8.56055 0.52054,-4.68575 -0.19588,-11.65521 -0.0332,-14.42187 0.16267,-2.76667 1.20437,-1.33535 2.4414,1.04101 1.23703,2.37636 2.66969,5.69727 4.65625,6.9668 1.98656,1.26953 4.52407,0.48782 5.98828,-1.66016 1.46422,-2.14797 1.85524,-5.6642 0.78125,-11.26172 -1.07398,-5.59751 -3.61389,-13.28333 -3.64648,-15.62695 -0.0326,-2.34362 2.44101,0.65086 5.56641,2.83203 3.12539,2.18117 6.9017,3.54991 9.99414,2.80078 3.09244,-0.74912 5.50268,-3.61444 8.13867,-8.30078 2.63599,-4.68634 5.50092,-11.19919 8.16992,-17.80664 2.669,-6.60745 5.14415,-13.31523 7.45508,-20.93164 2.31093,-7.61641 4.4593,-16.14634 6.15234,-20.50781 1.69304,-4.36147 2.92935,-4.55601 2.73438,-1.66211 -0.19498,2.8939 -1.82405,8.8875 -2.3125,13.44531 -0.48846,4.55781 0.1639,7.68369 1.23828,10.93945 1.07438,3.25577 2.57138,6.63995 4.7207,7.97461 2.14932,1.33467 4.94741,0.61879 7.16016,-3.15625 2.21274,-3.77503 3.84063,-10.61515 4.94726,-17.125 1.10664,-6.50984 1.69313,-12.69496 3.45118,-17.34961 1.75798,-4.65464 4.68831,-7.77974 5.5996,-6.96679 0.9113,0.81294 -0.19518,5.56659 -0.8789,9.60351 -0.68372,4.03692 -0.94547,7.35596 -0.26172,10.15625 0.68375,2.80029 2.31138,5.07875 3.93945,4.78516 1.62808,-0.29359 3.25651,-3.15863 5.20899,-8.75586 1.95248,-5.59723 4.23069,-13.93359 5.5,-16.96094 1.2693,-3.02735 1.52986,-0.74822 1.85547,2.60547 0.3256,3.3537 0.71674,7.77815 1.49804,11.45703 0.78131,3.67888 1.95233,6.60865 3.90625,6.44531 1.95392,-0.16333 4.6888,-3.41772 7.35742,-8.42968 2.66862,-5.01197 5.27382,-11.78491 8.30469,-16.52344 3.03088,-4.73853 6.48858,-7.4453 9.06836,-11.85938 2.57978,-4.41407 4.28304,-10.54019 8.33399,-15.28124 4.05094,-4.74108 10.45205,-8.10139 16.36718,-10.45704 4.43635,-1.76673 8.60107,-2.96923 10.31641,-3.14062 z m 42.32031,1.16601 c 0.50526,-0.004 0.73005,0.19775 0.69531,0.64649 -0.0926,1.19664 -2.027,4.14358 -5.20312,7.82617 -3.17612,3.68259 -7.59706,8.10327 -11.37109,11.37109 -3.77404,3.26783 -6.90442,5.3859 -9.80469,5.89258 -2.90027,0.50669 -5.57194,-0.59883 -6.90625,-0.46094 -1.33432,0.13793 -1.33534,1.51924 -1.19727,3.95899 0.13807,2.43975 0.41463,5.93818 -0.41406,5.57031 -0.82869,-0.36787 -2.76069,-4.60014 -2.80664,-7.91601 -0.046,-3.31588 1.79472,-5.70975 4.69531,-8.65625 2.90059,-2.94651 6.85834,-6.44396 11.96875,-9.48243 5.11041,-3.03846 11.37187,-5.61649 15.37695,-7.18164 2.50319,-0.97821 4.1247,-1.56104 4.9668,-1.56836 z m -7.24023,20.31641 c 1.25577,0.0887 2.00743,1.21964 1.90429,2.01367 -0.13752,1.05872 -1.79516,1.51928 -3.13086,2.8086 -1.33568,1.28931 -2.34757,3.40479 -2.34765,6.95117 -8e-5,3.54637 1.013,8.51584 2.80859,12.84375 1.7956,4.32791 4.37285,8.01101 7.04297,12.15429 2.67012,4.14329 5.43226,8.74612 7.08985,10.21876 1.65757,1.47263 2.20945,-0.18424 2.43945,-2.71485 0.23,-2.53061 0.1381,-5.94005 0.64453,-9.48437 0.50643,-3.54433 1.61224,-7.2284 2.625,-9.99024 1.01275,-2.76184 1.93287,-4.60452 3.12891,-3.63867 1.19604,0.96585 2.66997,4.7443 3.77539,6.125 1.10542,1.3807 1.8423,0.36759 2.66992,0.78125 0.82762,0.41366 1.74962,2.25695 2.16406,3.91406 0.41444,1.65711 0.32149,3.13024 -0.46094,5.98438 -0.78243,2.85414 -2.25525,7.09006 -3.31445,7.73437 -1.0592,0.64431 -1.70379,-2.30105 -2.16406,-5.61523 -0.46028,-3.31418 -0.7367,-6.99822 -1.38086,-9.11524 -0.64416,-2.11701 -1.65586,-2.67025 -1.74805,-1.28906 -0.0922,1.38119 0.73573,4.69556 0.73633,6.53711 6e-4,1.84155 -0.82815,2.20895 -1.51953,3.45313 -0.69139,1.24417 -1.242,3.35923 -1.56446,6.30664 -0.3224,2.9474 -0.41607,6.71895 -1.4746,8.79101 -1.05854,2.07206 -3.08289,2.44115 -5.01758,0.64453 -1.93469,-1.79662 -3.77465,-5.75367 -6.39844,-9.89648 -2.62379,-4.14281 -6.03134,-8.47015 -8.28711,-12.84375 -2.25577,-4.3736 -3.36034,-8.79402 -4.37305,-12.79883 -1.01271,-4.00481 -1.93267,-7.59576 -1.01172,-11.23242 0.92096,-3.63667 3.68298,-7.31951 5.75391,-8.33203 0.51773,-0.25313 0.99157,-0.34012 1.41016,-0.31055 z m -34.06055,61.8457 c 1.67377,-0.0174 4.00008,0.48747 6.64844,1.3418 3.0267,0.97638 6.47696,2.41044 9.01562,4.07031 2.53866,1.65988 4.16784,3.548 4.65625,6.2168 0.48841,2.6688 -0.16353,6.11868 -1.5957,8.36523 -1.43217,2.24656 -3.64411,3.28696 -6.2168,3.38477 -2.57269,0.0978 -5.50061,-0.74813 -8.30078,-2.92969 -2.80016,-2.18155 -5.47011,-5.69625 -6.80469,-8.98437 -1.33457,-3.28812 -1.33431,-6.34647 -0.94336,-8.33203 0.39097,-1.98556 1.1726,-2.89905 2.86524,-3.09375 0.21158,-0.0243 0.43667,-0.0366 0.67578,-0.0391 z m 67.81445,116.9336 c 1.04073,0.033 1.56189,1.46621 2.50586,3.67968 0.94398,2.21351 2.30985,5.20756 3.83985,7.68165 1.52999,2.47408 3.22462,4.42936 3.32226,6.80468 0.0976,2.37533 -1.40163,5.17461 -3.38672,6.76953 -1.98508,1.59493 -4.45884,1.98574 -6.54296,0.6836 -2.08413,-1.30214 -3.77524,-4.29554 -4.75196,-7.58399 -0.97672,-3.28844 -1.2373,-6.8703 -0.97656,-9.47461 0.26074,-2.6043 1.04051,-4.2307 2.21289,-5.72851 1.17238,-1.49781 2.73662,-2.86504 3.77734,-2.83203 z M 141.68306,596.49016 c 0.035,-0.002 0.071,0.007 0.1074,0.0274 0.5858,0.32573 1.3666,3.45143 2.2129,9.11523 0.8463,5.66381 1.7591,13.86692 2.4102,23.89258 0.651,10.02566 1.0408,21.87727 0.064,31.90234 -0.9764,10.02508 -3.3212,18.22875 -5.4043,25.12891 -2.083,6.90016 -3.9055,12.50217 -6.1836,16.86328 -2.278,4.36111 -5.0139,7.48628 -7.1621,10.8711 -2.1482,3.38481 -3.711,7.03287 -5.3379,9.70117 -1.6269,2.66829 -3.3192,4.36045 -3.1894,3.64453 0.1297,-0.71592 2.082,-3.84086 3.8398,-8.59375 1.7578,-4.7529 3.3202,-11.13238 5.2734,-18.75 1.9534,-7.61762 4.2976,-16.47103 6.1856,-27.53906 1.888,-11.06804 3.319,-24.34708 4.2305,-36.65235 0.9114,-12.30526 1.3025,-23.62953 1.6933,-30.5332 0.3664,-6.47219 0.7328,-9.04944 1.2598,-9.07813 z m -34.9219,308.84766 c 0.1414,0.0194 0.3119,0.12261 0.5235,0.32617 0.8461,0.81426 2.3449,3.22381 4.0703,6.70703 1.7253,3.48322 3.677,8.03903 4.8164,12.82422 1.1394,4.78519 1.4647,9.79868 0.9765,13.90039 -0.4881,4.10172 -1.7901,7.2918 -2.4414,9.99414 -0.6513,2.70235 -0.6505,4.91524 -0.064,6.9668 0.5861,2.05156 1.7572,3.93885 1.7246,4.10156 -0.033,0.16272 -1.2684,-1.39988 -2.961,-3.41797 -1.6926,-2.01808 -3.8411,-4.49323 -5.2734,-7.09765 -1.4323,-2.60442 -2.1485,-5.33832 -2.5391,-11.55469 -0.3905,-6.21637 -0.4564,-15.91996 -0.3261,-21.7793 0.1303,-5.85933 0.4564,-7.8778 0.7168,-9.27734 0.1953,-1.04965 0.3532,-1.75142 0.7773,-1.69336 z"
       style="fill:#1a1a1a;fill-opacity:1;stroke:none;stroke-width:1px;stroke-linecap:butt;stroke-linejoin:miter;stroke-opacity:1" />
  </g>
</svg>
